<?xml version="1.0" standalone="no"?>
<!DOCTYPE svg PUBLIC "-//W3C//DTD SVG 20010904//EN"
 "http://www.w3.org/TR/2001/REC-SVG-20010904/DTD/svg10.dtd">
<svg version="1.0" xmlns="http://www.w3.org/2000/svg"
 width="260.000000pt" height="260.000000pt" viewBox="0 0 260.000000 260.000000"
 preserveAspectRatio="xMidYMid meet">
<metadata>
Created by potrace 1.14, written by Peter Selinger 2001-2017
</metadata>
<g transform="translate(0.000000,260.000000) scale(0.100000,-0.100000)"
fill="#000000" stroke="none">
<path d="M1725 2560 c82 -9 114 -21 160 -55 36 -28 49 -66 32 -102 -7 -16 -7
-30 0 -46 57 -125 54 -112 41 -201 -14 -100 -1 -211 36 -314 13 -37 36 -98 50
-137 21 -58 26 -88 26 -172 0 -148 -13 -199 -64 -248 -23 -22 -87 -64 -144
-94 -84 -44 -101 -57 -97 -72 9 -28 -28 -102 -74 -148 -23 -23 -41 -47 -41
-54 0 -8 -12 -24 -26 -38 l-27 -24 6 43 c3 27 2 40 -5 36 -6 -4 -8 -26 -5 -50
3 -33 1 -44 -11 -49 -28 -11 -42 37 -22 76 6 10 7 19 2 19 -5 0 -15 -13 -22
-29 -9 -23 -9 -34 0 -51 10 -18 9 -24 -1 -31 -34 -21 -37 19 -10 153 31 151
53 196 196 396 41 57 45 69 45 120 0 31 -5 64 -11 72 -7 11 -8 1 -3 -35 l6
-50 -31 34 c-33 36 -26 34 -226 67 -100 16 -193 13 -238 -7 -19 -8 -18 -8 8
-5 95 14 124 16 145 8 18 -7 6 -10 -56 -16 -43 -3 -92 -9 -108 -13 -20 -4 -27
-3 -22 6 18 29 -15 5 -69 -50 -65 -66 -122 -103 -172 -114 -29 -6 -32 -4 -26
11 4 10 -10 1 -31 -19 -21 -21 -39 -37 -41 -35 -2 2 -101 136 -220 298 -120
162 -221 296 -226 298 -5 2 -6 23 -3 47 5 35 3 46 -15 64 -35 35 -102 22 -123
-24 -17 -38 11 -92 53 -103 26 -6 50 -33 132 -147 56 -77 156 -216 224 -308
68 -92 123 -170 123 -173 0 -20 -47 12 -147 103 -399 362 -493 454 -493 484 0
64 -83 94 -117 43 -39 -60 -7 -138 53 -132 30 2 50 -14 226 -178 106 -99 239
-222 295 -273 l102 -93 -23 -32 c-37 -49 -61 -104 -84 -191 -66 -251 -49 -447
49 -594 23 -34 57 -74 75 -89 19 -15 34 -30 34 -34 0 -5 -37 -8 -82 -8 -88 0
-162 -23 -227 -69 -41 -29 -36 -44 20 -54 55 -11 50 -11 134 4 40 6 110 9 165
6 88 -5 101 -8 180 -50 47 -25 110 -53 140 -63 l55 -18 -40 -10 c-22 -5 -105
-9 -185 -9 -205 -1 -300 24 -570 149 -102 48 -107 49 -200 49 -52 0 -119 -6
-147 -14 -53 -13 -53 -13 -53 -53 l0 -39 58 8 c144 20 273 2 421 -62 172 -73
184 -75 486 -75 262 0 280 1 432 30 179 34 242 51 296 79 l38 19 50 -64 c28
-35 55 -64 60 -64 5 0 -58 89 -139 198 -137 182 -236 318 -351 482 -83 117
-104 150 -100 155 9 8 135 -121 189 -194 30 -40 141 -199 245 -354 105 -154
196 -282 203 -285 7 -2 -1 18 -18 44 -16 26 -30 52 -30 56 0 4 19 8 42 8 32 0
49 6 70 27 l27 26 70 -46 c72 -49 91 -56 91 -34 0 20 -28 57 -102 133 l-70 71
47 63 c25 35 50 70 54 78 6 11 13 12 28 3 12 -6 71 -24 133 -41 208 -56 269
-98 277 -187 5 -45 2 -51 -37 -96 -24 -27 -66 -61 -94 -77 -28 -17 -44 -30
-35 -30 21 0 84 42 132 88 71 69 71 150 1 211 -50 44 -97 66 -209 96 -141 38
-178 54 -171 74 2 9 16 46 30 83 39 104 51 220 36 363 -16 150 -36 218 -89
295 l-42 61 20 42 c12 25 25 84 32 144 14 124 5 183 -51 323 -21 52 -43 121
-50 154 -16 78 -14 213 5 309 25 129 17 197 -23 197 -9 0 -28 18 -41 39 -36
59 -89 84 -186 87 l-80 3 70 -9z m-1297 -553 c5 -40 -14 -67 -48 -67 -41 0
-68 40 -51 76 23 52 92 46 99 -9z m144 -255 c76 -103 194 -263 262 -356 l125
-169 -26 -39 c-14 -21 -29 -37 -33 -36 -4 2 -38 31 -76 64 -38 34 -116 103
-174 154 -161 143 -470 432 -470 441 0 31 41 1 188 -137 268 -252 523 -479
538 -479 8 0 14 5 14 10 0 6 -76 111 -168 235 -157 210 -286 389 -326 452 -16
25 -15 48 2 48 4 0 69 -85 144 -188z m-395 149 c9 -19 9 -31 -1 -54 -34 -86
-108 -40 -84 51 8 30 12 33 41 30 22 -2 35 -11 44 -27z m1303 -361 c-20 -13
-40 -13 -40 0 0 6 12 10 28 10 21 0 24 -2 12 -10z m-52 -6 c-4 -3 -9 -5 -12
-5 -19 2 -131 -48 -191 -86 -118 -76 -233 -203 -300 -333 -45 -87 -123 -359
-126 -440 0 -14 -3 -19 -6 -12 -3 7 1 43 7 80 7 37 14 83 17 102 6 50 46 165
91 261 87 186 242 339 413 408 67 27 121 40 107 25z m235 -11 c-13 -2 -33 -2
-45 0 -13 2 -3 4 22 4 25 0 35 -2 23 -4z m-108 -17 c-22 -7 -55 -20 -73 -30
-19 -10 -36 -15 -40 -12 -3 3 -3 7 -1 9 13 10 117 46 134 46 11 0 2 -6 -20
-13z m93 -27 c-21 -5 -68 -22 -104 -39 -37 -17 -69 -28 -72 -25 -10 10 135 71
173 72 l40 1 -37 -9z m-479 -202 c-144 -142 -244 -311 -289 -484 -6 -24 -15
-43 -20 -43 -27 0 75 249 148 360 58 88 206 249 218 237 4 -4 -22 -35 -57 -70z
m99 -58 c-102 -83 -235 -308 -250 -423 -4 -25 -18 -49 -18 -29 0 22 43 150 72
213 47 104 185 271 223 270 5 -1 -7 -14 -27 -31z m820 -99 c31 -66 36 -85 38
-160 l2 -85 -7 80 c-8 85 -30 145 -80 219 -36 52 -40 67 -10 40 11 -10 37 -52
57 -94z m-1354 -18 c-4 -40 -11 -69 -16 -66 -5 4 -7 29 -3 58 14 110 29 116
19 8z m647 33 c-36 -41 -38 -51 -13 -64 15 -8 25 -3 52 24 19 19 38 35 44 35
6 0 -7 -18 -28 -39 l-38 -39 28 -17 c28 -16 11 -16 -27 -1 -11 5 -19 -1 -28
-20 -6 -15 -10 -29 -7 -31 3 -3 33 -16 68 -29 35 -12 53 -23 41 -23 -12 -1
-44 8 -72 18 -51 21 -61 19 -61 -11 0 -10 -5 -18 -11 -18 -7 0 -8 11 -4 31 5
22 3 34 -6 40 -20 13 -27 11 -33 -8 -3 -13 -4 -12 -3 3 1 11 -5 29 -13 39 -14
17 -13 18 2 12 26 -9 55 48 36 70 -11 14 -10 15 8 9 15 -4 28 2 49 24 40 42
54 38 16 -5z m669 -70 c16 -33 37 -96 45 -140 21 -110 17 -128 -5 -27 -19 84
-59 186 -92 234 -10 14 -18 30 -18 35 1 16 40 -42 70 -102z m-111 -10 c37 -61
101 -236 101 -275 -1 -37 -16 -5 -24 47 -10 76 -97 256 -141 293 -8 7 -15 17
-15 23 0 19 44 -30 79 -88z m-88 -7 c43 -59 107 -195 114 -243 3 -28 2 -36 -5
-25 -5 8 -10 21 -10 28 0 31 -65 167 -106 222 -24 33 -39 60 -34 60 5 0 24
-19 41 -42z m-581 -149 c285 -229 840 -751 840 -788 0 -37 -83 32 -515 433
-149 138 -305 283 -348 322 -59 53 -76 74 -71 87 6 15 9 16 23 4 9 -7 41 -33
71 -58z m-526 -96 c5 -20 4 -33 -2 -33 -14 0 -35 134 -26 162 7 18 10 10 15
-37 3 -33 9 -75 13 -92z m1066 133 c0 -2 -7 -23 -15 -46 -8 -23 -15 -46 -15
-50 0 -5 25 -22 56 -40 31 -17 54 -33 52 -36 -3 -2 -30 10 -61 27 -31 17 -57
26 -57 21 0 -6 -2 -17 -5 -25 -4 -9 16 -28 60 -57 81 -53 78 -67 -4 -17 -32
21 -61 37 -64 37 -2 0 -10 -21 -17 -47 -7 -27 -17 -52 -22 -58 -4 -5 -1 15 8
44 8 30 13 62 11 72 -3 10 1 20 9 23 19 7 18 46 -1 46 -9 0 -15 -9 -15 -24 0
-14 -4 -27 -9 -30 -4 -3 -14 -26 -21 -51 -7 -25 -17 -45 -21 -45 -12 0 -12 0
6 51 19 54 15 64 -29 80 -20 7 -36 17 -36 21 0 12 7 10 49 -12 21 -10 41 -16
45 -13 15 16 4 42 -24 53 -16 7 -30 16 -30 21 0 5 16 2 37 -6 20 -8 37 -14 38
-13 1 2 7 12 14 23 10 18 11 17 5 -6 -11 -49 12 -38 25 11 7 28 17 50 22 50 5
0 9 -2 9 -4z m-1164 -194 c1 -141 16 -198 73 -282 23 -34 40 -64 38 -67 -9 -8
-55 61 -89 132 -31 67 -33 77 -36 210 -2 78 0 136 4 132 5 -5 9 -61 10 -125z
m1481 -22 c-11 -132 -55 -255 -125 -348 -36 -48 -38 -32 -2 21 69 102 119 252
120 355 0 23 3 42 6 42 4 0 4 -31 1 -70z m-992 -74 l-6 -44 52 -36 c30 -20 56
-32 60 -28 4 4 14 31 24 60 9 29 19 51 22 48 3 -2 -5 -30 -16 -61 l-21 -56 71
-33 c39 -18 68 -36 63 -39 -12 -7 -135 50 -206 96 -55 35 -56 35 -62 14 -11
-43 -5 -55 44 -87 54 -34 70 -33 70 7 0 15 3 23 8 19 4 -4 7 -22 7 -39 0 -28
5 -33 45 -49 25 -11 34 -16 20 -13 -87 19 -80 21 -80 -19 0 -20 -5 -36 -11
-36 -8 0 -9 15 -5 45 6 35 4 45 -6 45 -8 0 -35 13 -61 30 l-46 29 -7 -59 c-4
-33 -11 -60 -16 -60 -8 0 -3 69 8 111 2 8 -9 28 -26 44 -16 16 -30 33 -30 39
0 5 13 -3 30 -19 31 -30 32 -29 44 26 4 19 -1 32 -19 49 -14 13 -25 28 -25 33
0 6 10 1 23 -11 30 -28 33 -28 41 8 9 46 17 35 11 -14z m940 -25 c-12 -39 -92
-136 -138 -169 -63 -45 -59 -27 6 24 33 26 67 66 91 108 37 64 55 80 41 37z
m-1288 -58 c-2 -16 -4 -3 -4 27 0 30 2 43 4 28 2 -16 2 -40 0 -55z m0 -105
c-2 -13 -4 -3 -4 22 0 25 2 35 4 23 2 -13 2 -33 0 -45z m54 -120 c15 -20 17
-29 8 -26 -18 6 -46 54 -54 93 l-6 30 15 -33 c9 -18 25 -47 37 -64z m694 -48
c-15 -25 -190 -89 -204 -75 -6 7 -4 8 91 38 48 16 90 32 93 38 4 5 11 9 16 9
6 0 7 -5 4 -10z m-670 -42 l36 -43 -148 -5 c-81 -3 -150 -4 -153 -2 -7 5 43
41 65 46 11 2 4 4 -15 3 -25 -2 -35 2 -35 13 0 20 36 28 132 29 l81 1 37 -42z
m150 -49 c66 -39 195 -70 314 -76 83 -4 109 -9 96 -16 -23 -13 -172 -2 -250
18 -74 19 -245 100 -245 116 0 7 10 5 27 -6 14 -10 41 -26 58 -36z m-405 34
c0 -3 -7 -15 -17 -25 -17 -19 -49 -23 -72 -9 -11 7 -7 12 15 25 30 16 74 21
74 9z m649 -29 c8 -7 -134 -2 -164 6 -16 4 13 5 65 2 52 -3 97 -6 99 -8z m52
7 c-8 -5 -20 -7 -28 -4 -21 8 -15 13 15 13 20 0 23 -3 13 -9z m631 -8 c42 -37
8 -71 -39 -38 -29 21 -30 23 -15 39 21 20 31 20 54 -1z m-287 -32 c-6 -11
-114 -47 -167 -57 -25 -4 -38 -2 -38 5 0 6 12 11 28 12 15 0 59 11 97 24 81
27 88 28 80 16z m229 -11 c38 -14 32 -25 -19 -37 -37 -8 -45 -8 -50 6 -4 9 1
21 11 28 21 16 25 16 58 3z m-180 -19 c11 -17 -194 -73 -254 -70 -14 1 -1 5
28 10 40 7 206 58 219 68 1 0 4 -3 7 -8z m-414 -62 c30 -7 28 -8 -13 -4 -27 3
-56 10 -65 16 -18 11 -19 11 78 -12z m113 -16 c-13 -2 -35 -2 -50 0 -16 2 -5
4 22 4 28 0 40 -2 28 -4z"/>
<path d="M1320 1049 c-23 -42 13 -68 38 -28 10 16 10 24 1 35 -16 19 -26 18
-39 -7z"/>
<path d="M1543 2545 c-100 -27 -179 -85 -198 -145 -4 -12 -16 -31 -26 -41 -12
-12 -19 -33 -19 -59 0 -40 17 -90 31 -90 10 0 48 -115 55 -172 9 -69 -3 -114
-42 -158 -19 -21 -33 -42 -32 -47 4 -11 -78 -178 -94 -191 -7 -6 -37 -19 -67
-31 -29 -11 -69 -30 -87 -43 -40 -26 -157 -173 -152 -189 2 -6 20 13 40 43 66
95 123 144 198 173 38 14 74 32 80 40 23 28 100 179 100 197 0 10 7 21 15 25
9 3 25 23 35 44 30 58 26 145 -10 249 -29 81 -33 140 -9 140 13 0 11 21 -5 52
-9 16 -11 30 -5 33 5 4 9 13 9 22 0 50 91 111 212 143 40 10 62 19 48 19 -14
0 -49 -7 -77 -14z"/>
<path d="M1689 2447 c-21 -16 -39 -51 -39 -74 0 -22 38 -60 91 -92 l37 -21 25
42 c52 92 52 85 14 123 -28 28 -43 35 -73 35 -22 0 -46 -6 -55 -13z m46 -52
c0 -16 6 -30 13 -33 10 -3 13 3 10 21 -4 35 15 37 26 4 11 -30 -5 -57 -34 -57
-30 0 -46 34 -41 88 2 26 26 5 26 -23z"/>
<path d="M1430 2403 c-25 -32 -22 -72 8 -112 32 -44 50 -49 72 -21 11 14 25
41 31 62 10 32 9 40 -10 67 -29 41 -71 42 -101 4z m70 -28 c16 -20 6 -45 -19
-45 -19 0 -41 26 -41 49 0 16 46 13 60 -4z"/>
<path d="M1476 2371 c-4 -7 -5 -15 -2 -18 9 -9 19 4 14 18 -4 11 -6 11 -12 0z"/>
<path d="M1583 2262 c-23 -9 -44 -20 -48 -24 -3 -3 5 -25 19 -47 23 -35 31
-41 61 -41 40 0 55 20 55 74 0 25 -6 38 -19 46 -23 12 -17 13 -68 -8z"/>
<path d="M1824 2193 c2 -35 -100 -70 -259 -89 -43 -5 -112 27 -100 46 3 6 2
10 -4 10 -6 0 -15 -9 -21 -19 -13 -25 -13 -34 1 -26 5 4 26 -1 45 -10 58 -27
242 -1 317 45 l48 30 9 -23 c7 -18 9 -19 9 -4 1 26 -17 57 -33 57 -8 0 -13 -8
-12 -17z"/>
<path d="M1595 2034 c-11 -13 -19 -29 -17 -35 1 -5 -4 -20 -13 -32 -8 -12 -15
-30 -15 -40 0 -31 -30 -86 -51 -92 -30 -10 -23 -32 28 -86 41 -44 47 -56 51
-104 2 -30 7 -55 11 -55 4 0 28 44 55 97 26 54 57 104 68 111 14 11 16 17 8
27 -9 11 -6 16 11 26 21 11 21 12 3 22 -31 16 -53 50 -48 73 3 12 -1 26 -10
33 -9 8 -16 22 -16 32 0 11 -5 19 -11 19 -7 0 -17 6 -23 14 -9 12 -14 11 -31
-10z"/>
<path d="M2328 264 c45 -31 21 -75 -37 -67 -78 11 -217 34 -236 40 -13 3 -17
2 -10 -5 6 -5 53 -17 105 -26 52 -9 108 -19 124 -22 l28 -6 -37 -31 c-47 -38
-69 -86 -55 -122 5 -14 14 -25 20 -25 7 0 8 6 0 19 -5 11 -10 29 -10 40 0 25
44 77 80 96 42 22 60 44 60 74 0 30 -16 51 -39 51 -11 0 -9 -5 7 -16z"/>
</g>
</svg>
