<?xml version="1.0" standalone="no"?>
<!DOCTYPE svg PUBLIC "-//W3C//DTD SVG 20010904//EN"
 "http://www.w3.org/TR/2001/REC-SVG-20010904/DTD/svg10.dtd">
<svg version="1.0" xmlns="http://www.w3.org/2000/svg"
 width="260.000000pt" height="260.000000pt" viewBox="0 0 260.000000 260.000000"
 preserveAspectRatio="xMidYMid meet">
<metadata>
Created by potrace 1.14, written by Peter Selinger 2001-2017
</metadata>
<g transform="translate(0.000000,260.000000) scale(0.100000,-0.100000)"
fill="#000000" stroke="none">
<path d="M1595 2562 c-2 -2 -29 -10 -60 -18 -52 -14 -102 -40 -145 -76 -25
-21 -58 -82 -52 -97 2 -8 0 -11 -5 -8 -5 3 -16 -2 -24 -11 -24 -28 -13 -108
20 -147 22 -26 51 -115 58 -182 4 -38 1 -64 -13 -97 -11 -25 -22 -46 -25 -46
-14 0 -49 -39 -40 -44 6 -4 -4 -34 -26 -74 -59 -108 -84 -135 -148 -156 -40
-14 -73 -35 -111 -72 -30 -29 -54 -56 -54 -61 0 -4 -14 -24 -30 -43 -30 -35
-38 -60 -21 -60 5 0 12 6 14 13 4 9 6 9 6 0 1 -7 -9 -18 -21 -24 -22 -12 -30
-6 -76 56 -4 6 -29 38 -55 73 -26 34 -47 66 -47 71 0 5 -4 11 -8 13 -4 2 -31
35 -59 73 -29 39 -56 75 -60 80 -5 6 -16 22 -25 36 -9 14 -23 32 -30 40 -8 8
-33 42 -57 77 -24 34 -51 62 -59 62 -10 0 -12 4 -5 13 22 27 21 67 -3 92 -44
47 -117 24 -130 -42 -6 -28 -2 -37 25 -62 18 -17 38 -28 46 -25 11 5 94 -104
237 -309 7 -11 20 -27 28 -37 8 -10 33 -44 55 -75 22 -31 64 -88 93 -127 28
-40 52 -73 52 -75 0 -2 -6 -3 -13 -3 -13 0 -85 60 -154 128 -18 18 -33 31 -33
29 0 -2 -34 28 -75 67 -41 39 -105 99 -142 133 -165 150 -218 203 -219 220 -1
28 -15 73 -23 71 -3 -1 -15 3 -27 9 -44 25 -102 -37 -89 -96 12 -54 43 -74 91
-59 6 1 64 -46 128 -107 65 -60 144 -135 176 -165 86 -80 209 -193 258 -236
43 -37 43 -37 23 -58 -49 -52 -100 -196 -116 -326 -2 -14 -4 -25 -5 -25 -8 0
-13 -170 -6 -210 19 -113 64 -222 111 -271 11 -11 35 -37 54 -56 l33 -36 -63
0 c-73 0 -113 -5 -150 -20 -15 -6 -30 -8 -33 -5 -3 4 -6 1 -6 -5 0 -7 -5 -12
-12 -12 -18 0 -78 -50 -78 -64 0 -8 16 -16 38 -20 56 -9 72 -9 127 0 28 5 102
8 166 8 105 -1 119 -3 156 -27 22 -14 44 -23 47 -20 3 4 6 2 6 -3 0 -14 116
-63 158 -66 6 -1 12 -5 12 -9 0 -10 -86 -23 -99 -15 -5 4 -12 2 -15 -2 -6 -10
-175 -8 -245 2 -98 14 -253 60 -310 91 -39 21 -173 82 -196 88 -48 15 -118 23
-135 17 -3 -1 -25 -3 -50 -5 -46 -5 -55 -6 -102 -20 -25 -6 -28 -12 -28 -52 0
-24 3 -42 7 -40 30 18 183 26 263 13 53 -8 85 -14 85 -16 0 -1 7 -3 15 -5 17
-3 132 -48 220 -86 54 -23 63 -24 374 -26 176 -1 324 1 330 5 6 4 22 8 36 9
14 1 48 7 75 13 28 6 64 13 80 16 56 8 196 48 220 62 22 14 36 9 57 -21 49
-70 70 -87 105 -87 l34 0 -34 53 -34 53 26 3 c14 1 37 3 51 4 14 1 35 12 46
25 21 21 54 22 54 1 0 -5 5 -9 10 -9 6 0 29 -13 52 -30 42 -31 68 -38 68 -19
0 13 -19 50 -34 65 -56 58 -77 86 -60 80 26 -8 121 -27 167 -33 21 -3 50 -8
65 -12 l27 -8 -25 -13 c-57 -30 -91 -100 -70 -141 9 -16 22 -19 81 -19 66 0
73 2 124 40 29 22 61 50 69 62 9 12 16 18 16 13 1 -6 7 5 15 24 17 39 20 87 5
96 -6 4 -8 10 -5 15 11 18 -98 103 -140 110 -5 1 -14 5 -20 10 -5 4 -39 15
-75 24 -95 24 -163 45 -178 54 -9 6 -7 22 12 69 41 99 53 170 50 294 -3 128
-10 206 -25 262 -12 46 -61 140 -89 170 -20 21 -27 47 -12 47 23 0 45 115 46
240 0 112 0 117 -53 251 -22 57 -42 115 -45 129 -3 14 -8 36 -11 50 -14 61 -7
210 15 302 17 74 13 145 -10 168 -11 11 -27 20 -35 20 -8 0 -15 6 -15 13 -1
22 -44 66 -85 86 -33 16 -59 19 -143 18 -57 -1 -105 -3 -107 -5z"/>
</g>
</svg>
